# xmcd
#
# Track frame offsets: 
#        150
#        12940
#        24257
#        37974
#        49297
#        64953
#        78347
#        95100
#        108196
#        123725
#        138133
#        151018
#        162109
#        177439
#        183763
#        194986
#        211430
#        222561
#        235828
#        252145
#        264281
#        278547
#        295329
#        301379
#        314455
#        325038
#
# Disc length: 4494 seconds
#
# Revision: 0
# Processed by: cddbd v1.5.2PL0 Copyright (c) Steve Scherf et al.
# Submitted via: ExactAudioCopyFreeDBPlugin 1.0
#
DISCID=71118c1a
DTITLE=Spade Cooley - 1945-1946: "Live" at the Santa Monica Pier and Riv
DTITLE=erside Rancho
DYEAR=2001
DGENRE=Country
TTITLE0=Redwing
TTITLE1=Guitar Swing
TTITLE2=I've Taken All I'm Gonna Take From You
TTITLE3=Dill Pickle Rag
TTITLE4=Gals Don't Mean A Thing
TTITLE5=There I Said It Again
TTITLE6=Tweedle-O-Twill
TTITLE7=Over The Waves
TTITLE8=Miss Molly
TTITLE9=Memories
TTITLE10=Cattle Call
TTITLE11=Spadella
TTITLE12=You Never Miss The Water Till The Well Runs Dry
TTITLE13=Jive On The Range
TTITLE14=All That Glitters Is Not Gold
TTITLE15=The Covered Wagon Rolled Right Along
TTITLE16=Am I Blue
TTITLE17=Moon Over Montana
TTITLE18=Spanish Two Step
TTITLE19=I Found A New Baby
TTITLE20=South
TTITLE21=Hide Your Face
TTITLE22=Copenhagen
TTITLE23=San Antonio Rose
TTITLE24=Memory Schottishe
TTITLE25=Riverside Drive
EXTD=
EXTT0=
EXTT1=
EXTT2=
EXTT3=
EXTT4=
EXTT5=
EXTT6=
EXTT7=
EXTT8=
EXTT9=
EXTT10=
EXTT11=
EXTT12=
EXTT13=
EXTT14=
EXTT15=
EXTT16=
EXTT17=
EXTT18=
EXTT19=
EXTT20=
EXTT21=
EXTT22=
EXTT23=
EXTT24=
EXTT25=
PLAYORDER=
